<svg xmlns="http://www.w3.org/2000/svg" width="50" height="50" viewBox="0 0 50 50">
    <defs>
        <linearGradient id="a" x1="75.477%" x2="23.301%" y1="91.865%" y2="9.764%">
            <stop offset="3.534%" stop-color="#FFCD68"/>
            <stop offset="100%" stop-color="#FFF1D6"/>
        </linearGradient>
        <filter id="b" width="117.6%" height="130%" x="-8.8%" y="-15%" filterUnits="objectBoundingBox">
            <feGaussianBlur in="SourceGraphic" stdDeviation="1"/>
        </filter>
    </defs>
    <g fill="none" fill-rule="evenodd">
        <circle cx="25" cy="25" r="25" fill="url(#a)"/>
        <path fill="#000" fill-opacity=".1" d="M9 37a1 1 0 0 1-1-1v-1a1 1 0 0 1 1-1h1V18a1 1 0 0 1 1-1h28a1 1 0 0 1 1 1v16h1a1 1 0 0 1 1 1v1a1 1 0 0 1-1 1H9z" filter="url(#b)"/>
        <path fill="#FFF" d="M9 35a1 1 0 0 1-1-1v-1a1 1 0 0 1 1-1h1V16a1 1 0 0 1 1-1h28a1 1 0 0 1 1 1v16h1a1 1 0 0 1 1 1v1a1 1 0 0 1-1 1H9z"/>
        <path fill="#F2CA7A" fill-rule="nonzero" d="M23.415 24.725c.456 0 .883.112 1.253.309.278.154.64.176.995.176 0 0 .093-.002.493-.003l.568-.001c.512 0 1.085.307 1.085.96 0 .616-.573.962-1.085.962H25.26a.241.241 0 0 0-.231.24c0 .114.12.244.231.244h2.39s2.43-2.153 2.852-2.406c.423-.254.9-.334 1.306-.05.214.152.226.48.031.66l-3.176 3.694c-.349.322-.8.5-1.267.5h-4.691l-.926.96L19 28.088l2.495-2.547a2.63 2.63 0 0 1 1.92-.816zM28.068 18c.416 0 .83.151 1.152.466.71.694.723 1.853.038 2.563l-2.637 2.735-2.637-2.735a1.831 1.831 0 0 1 .038-2.563A1.636 1.636 0 0 1 25.174 18c.469 0 .942.192 1.295.558l.152.157.151-.157A1.805 1.805 0 0 1 28.068 18z"/>
    </g>
</svg>
